<svg width="12" height="13" viewBox="0 0 12 13" fill="none" xmlns="http://www.w3.org/2000/svg">
<path d="M0.80625 11.6906C0.80625 12.0114 0.933666 12.319 1.16047 12.5458C1.38727 12.7726 1.69488 12.9 2.01562 12.9H9.27187C9.59262 12.9 9.90023 12.7726 10.127 12.5458C10.3538 12.319 10.4812 12.0114 10.4812 11.6906V3.225H0.80625V11.6906ZM7.65937 5.24063C7.65937 5.13371 7.70184 5.03118 7.77744 4.95557C7.85304 4.87997 7.95558 4.8375 8.0625 4.8375C8.16941 4.8375 8.27195 4.87997 8.34755 4.95557C8.42315 5.03118 8.46562 5.13371 8.46562 5.24063V10.8844C8.46562 10.9913 8.42315 11.0938 8.34755 11.1694C8.27195 11.245 8.16941 11.2875 8.0625 11.2875C7.95558 11.2875 7.85304 11.245 7.77744 11.1694C7.70184 11.0938 7.65937 10.9913 7.65937 10.8844V5.24063ZM5.24062 5.24063C5.24062 5.13371 5.28309 5.03118 5.3587 4.95557C5.4343 4.87997 5.53683 4.8375 5.64375 4.8375C5.75066 4.8375 5.8532 4.87997 5.9288 4.95557C6.0044 5.03118 6.04687 5.13371 6.04687 5.24063V10.8844C6.04687 10.9913 6.0044 11.0938 5.9288 11.1694C5.8532 11.245 5.75066 11.2875 5.64375 11.2875C5.53683 11.2875 5.4343 11.245 5.3587 11.1694C5.28309 11.0938 5.24062 10.9913 5.24062 10.8844V5.24063ZM2.82187 5.24063C2.82187 5.13371 2.86435 5.03118 2.93995 4.95557C3.01555 4.87997 3.11808 4.8375 3.225 4.8375C3.33191 4.8375 3.43445 4.87997 3.51005 4.95557C3.58565 5.03118 3.62812 5.13371 3.62812 5.24063V10.8844C3.62812 10.9913 3.58565 11.0938 3.51005 11.1694C3.43445 11.245 3.33191 11.2875 3.225 11.2875C3.11808 11.2875 3.01555 11.245 2.93995 11.1694C2.86435 11.0938 2.82187 10.9913 2.82187 10.8844V5.24063ZM10.8844 0.806254H7.86093L7.6241 0.335102C7.57393 0.234375 7.49665 0.149645 7.40095 0.0904451C7.30525 0.0312451 7.19493 -7.62905e-05 7.0824 4.41742e-06H4.20258C4.0903 -0.000427192 3.98017 0.0307775 3.88481 0.0900433C3.78945 0.149309 3.71272 0.234239 3.6634 0.335102L3.42656 0.806254H0.403125C0.296209 0.806254 0.193673 0.848726 0.118073 0.924327C0.042472 0.999927 0 1.10246 0 1.20938L0 2.01563C0 2.12254 0.042472 2.22508 0.118073 2.30068C0.193673 2.37628 0.296209 2.41875 0.403125 2.41875H10.8844C10.9913 2.41875 11.0938 2.37628 11.1694 2.30068C11.245 2.22508 11.2875 2.12254 11.2875 2.01563V1.20938C11.2875 1.10246 11.245 0.999927 11.1694 0.924327C11.0938 0.848726 10.9913 0.806254 10.8844 0.806254Z" fill="#FF4B33"/>
</svg>
