<svg width="25" height="26" viewBox="0 0 25 26" fill="none" xmlns="http://www.w3.org/2000/svg">
<g clip-path="url(#clip0_3_146)">
<path d="M16.7164 19.5348L22.1806 24.9989C22.3318 25.1556 22.5127 25.2806 22.7127 25.3666C22.9128 25.4527 23.1279 25.498 23.3457 25.4999C23.5634 25.5019 23.7794 25.4604 23.9809 25.378C24.1825 25.2956 24.3656 25.1738 24.5196 25.0198C24.6735 24.8659 24.7953 24.6827 24.8777 24.4812C24.9601 24.2797 25.0016 24.0637 24.9997 23.846C24.9977 23.6282 24.9524 23.413 24.8664 23.213C24.7804 23.013 24.6553 22.8321 24.4986 22.6809L19.035 17.2162C18.7258 16.9178 18.3117 16.7528 17.882 16.7567C17.4523 16.7605 17.0413 16.9329 16.7375 17.2368C16.4336 17.5406 16.2612 17.9516 16.2574 18.3813C16.2535 18.811 16.4186 19.225 16.7169 19.5343L16.7164 19.5348Z" fill="#404B69"/>
<path d="M10.8659 22.2317C16.8668 22.2317 21.7317 17.3668 21.7317 11.3659C21.7317 5.36491 16.8668 0.5 10.8659 0.5C4.86491 0.5 0 5.36491 0 11.3659C0 17.3668 4.86491 22.2317 10.8659 22.2317ZM10.8659 18.972C6.66514 18.972 3.25976 15.5666 3.25976 11.3659C3.25976 7.16514 6.66514 3.75976 10.8659 3.75976C15.0666 3.75976 18.472 7.16514 18.472 11.3659C18.472 15.5666 15.0666 18.972 10.8659 18.972Z" fill="#404B69"/>
</g>
<defs>
<clipPath id="clip0_3_146">
<rect width="25" height="25" fill="white" transform="translate(0 0.5)"/>
</clipPath>
</defs>
</svg>
