<svg width="15" height="13" viewBox="0 0 15 13" fill="none" xmlns="http://www.w3.org/2000/svg">
<path d="M10.1456 2.09414L12.4187 4.3672C12.5144 4.46296 12.5144 4.6192 12.4187 4.71496L6.91494 10.2187L4.57636 10.4783C4.26388 10.5135 3.99928 10.2489 4.03456 9.93645L4.29412 7.59787L9.79785 2.09414C9.89361 1.99838 10.0499 1.99838 10.1456 2.09414ZM14.2281 1.51705L12.9983 0.287283C12.6152 -0.0957609 11.9928 -0.0957609 11.6072 0.287283L10.7151 1.17937C10.6194 1.27513 10.6194 1.43137 10.7151 1.52713L12.9882 3.80019C13.084 3.89596 13.2402 3.89596 13.336 3.80019L14.2281 2.90811C14.6111 2.52254 14.6111 1.9001 14.2281 1.51705ZM9.67689 8.7218V11.2872H1.61282V3.22311H7.40383C7.48447 3.22311 7.56007 3.19035 7.61803 3.13491L8.62604 2.1269C8.81756 1.93538 8.68148 1.6103 8.41184 1.6103H1.20961C0.541805 1.6103 0 2.1521 0 2.81991V11.6904C0 12.3582 0.541805 12.9 1.20961 12.9H10.0801C10.7479 12.9 11.2897 12.3582 11.2897 11.6904V7.71379C11.2897 7.44415 10.9646 7.31059 10.7731 7.49959L9.76509 8.5076C9.70965 8.56556 9.67689 8.64116 9.67689 8.7218Z" fill="#7684A8"/>
</svg>
